<svg id="Layer_1" data-name="Layer 1" xmlns="http://www.w3.org/2000/svg" viewBox="0 0 170.2 59.2"><defs><style>.cls-1{fill:#00352a;}</style></defs><title>iava_logo</title><path class="cls-1" d="M35.7,0,17.9,38.3H0L17.9,0ZM62.6,0H44.7L26.8,38.3H44.7ZM67,9.6,58.1,28.7l4.5,9.6H80.5ZM151.9,0H134L116.1,38.3H134Zm4.5,9.6-8.9,19.2,4.5,9.6h17.9ZM107.2,0l-4.5,9.6,8.9,19.2L125,.1H107.2ZM89.4,0H71.5L89.4,38.3h17.9Z"/><path class="cls-1" d="M89.6,51.4v-5h.9v5Z"/><path class="cls-1" d="M94.5,51.4l-.8-1.9H92.6v1.9h-.9v-5h2.1a2,2,0,0,1,.8.1,1.2,1.2,0,0,1,.8.8,1.27,1.27,0,0,1,.1.6,2.92,2.92,0,0,1-.2.9,1.79,1.79,0,0,1-.7.5l.9,2h-1Zm.1-3.5a.37.37,0,0,0-.1-.3.22.22,0,0,0-.2-.2c-.1-.1-.2-.1-.3-.2s-.2-.1-.3-.1H92.5v1.5h1.2a.85.85,0,0,0,.6-.2C94.5,48.4,94.6,48.2,94.6,47.9Z"/><path class="cls-1" d="M99.3,51.4l-.3-1H97l-.3,1h-.9l1.8-5h1l1.8,5ZM98,47.5l-.7,2.1h1.4Z"/><path class="cls-1" d="M104.6,48.9v.6a.75.75,0,0,1-.1.5c0,.2-.1.3-.2.5s-.2.3-.3.4l.4.5-.5.4-.6-.6a2.92,2.92,0,0,1-.9.2,2.2,2.2,0,0,1-.8-.1,1.61,1.61,0,0,1-.7-.4c-.1-.1-.2-.3-.3-.4s-.1-.3-.2-.5-.1-.3-.1-.5V48.3a.75.75,0,0,1,.1-.5c0-.2.1-.3.2-.5s.2-.3.3-.4a1.61,1.61,0,0,1,.7-.4,2,2,0,0,1,.8-.1,2.2,2.2,0,0,1,.8.1,2.51,2.51,0,0,1,.7.4c.1.1.2.3.3.4s.1.3.2.5.1.3.1.5A1.27,1.27,0,0,1,104.6,48.9Zm-.9,0v-.8c0-.1-.1-.3-.1-.4s-.1-.2-.2-.3a.52.52,0,0,0-.4-.2.6.6,0,0,0-.4-.1c-.2,0-.3,0-.4.1s-.3.1-.4.2-.1.2-.2.3-.1.2-.1.4v1.6c0,.1.1.3.1.4s.1.2.2.3a.52.52,0,0,0,.4.2.6.6,0,0,0,.4.1.37.37,0,0,0,.3-.1l-.5-.7.5-.4.5.7a.37.37,0,0,0,.1-.3c0-.1.1-.2.1-.3v-.3A.76.76,0,0,0,103.7,48.9Z"/><path class="cls-1" d="M110.3,51.4l-.3-1h-2l-.3,1h-.9l1.8-5h1l1.8,5ZM109,47.5l-.7,2.1h1.4Z"/><path class="cls-1" d="M114.9,51.4,112.7,48v3.4h-.8v-5h1l2.1,3.4V46.4h.9v5Z"/><path class="cls-1" d="M120.9,48.9v.5a.9.9,0,0,1-.1.5c0,.2-.1.3-.2.5a1.38,1.38,0,0,1-.3.4,2.09,2.09,0,0,1-.6.4,2,2,0,0,1-.8.1h-2v-5h1.9a2,2,0,0,1,.8.1,2.09,2.09,0,0,1,.6.4c.1.1.2.3.3.4s.1.3.2.5.1.3.1.5A2,2,0,0,1,120.9,48.9Zm-.9,0v-.8c0-.1-.1-.2-.1-.4s-.1-.2-.2-.3-.2-.2-.3-.2-.3-.1-.4-.1h-1v3.4h1a.6.6,0,0,0,.4-.1c.1-.1.2-.1.3-.2s.2-.2.2-.3.1-.2.1-.4v-.6Z"/><path class="cls-1" d="M126.4,51.4l-.3-1h-2l-.3,1h-.9l1.7-5h1l1.8,5Zm-1.3-3.9-.7,2.1h1.4Z"/><path class="cls-1" d="M128.9,47.2v1.3h2.3v.8h-2.3v2h-1v-5h3.5v.8h-2.5Z"/><path class="cls-1" d="M135.3,51.4l-.1-.6c0,.1-.1.1-.2.2s-.2.1-.3.2-.2.1-.4.2-.3.1-.4.1a2,2,0,0,1-.8-.1,1.61,1.61,0,0,1-.7-.4c-.1-.1-.2-.3-.3-.4s-.1-.3-.2-.5-.1-.3-.1-.5V48.4a4.33,4.33,0,0,1,.1-.5c0-.2.1-.3.2-.5a1.38,1.38,0,0,1,.3-.4,1.61,1.61,0,0,1,.7-.4,2.2,2.2,0,0,1,.8-.1,1.88,1.88,0,0,1,.8.2.92.92,0,0,1,.6.4c.1.1.2.3.3.4a1.27,1.27,0,0,1,.1.6h-.8a.37.37,0,0,0-.1-.3c0-.1-.1-.1-.1-.2a1,1,0,0,0-.8-.3.6.6,0,0,0-.4.1c-.2.1-.3.1-.4.3s-.2.2-.2.3-.1.2-.1.4a.6.6,0,0,1-.1.4v.8a.6.6,0,0,0,.1.4c0,.1.1.3.1.4s.1.2.2.3a.52.52,0,0,0,.4.2.6.6,0,0,0,.4.1c.2,0,.3,0,.4-.1s.2-.1.3-.2.2-.3.3-.4.1-.3.1-.5h-1.2V48.7h2.1v2.7Z"/><path class="cls-1" d="M139.7,51.4V49.2h-2.1v2.2h-.9v-5h.9v2h2.1v-2h.9v5Z"/><path class="cls-1" d="M144.8,51.4l-.3-1h-2l-.3,1h-.9l1.8-5h1l1.8,5Zm-1.4-3.9-.7,2.1h1.4Z"/><path class="cls-1" d="M149.4,51.4,147.2,48v3.4h-.9v-5h1l2.1,3.4V46.4h.9v5Z"/><path class="cls-1" d="M151.4,51.4v-5h.9v5Z"/><path class="cls-1" d="M157.1,49.9a1.27,1.27,0,0,1-.1.6,1.38,1.38,0,0,1-.3.4,1.61,1.61,0,0,1-.7.4,2.77,2.77,0,0,1-.9.1,2.2,2.2,0,0,1-.8-.1,1.61,1.61,0,0,1-.7-.4,1,1,0,0,1-.4-.5,1.48,1.48,0,0,1-.1-.7h.9a.37.37,0,0,0,.1.3c0,.1.1.2.2.3a.52.52,0,0,0,.4.2c.2,0,.3.1.4.1a.9.9,0,0,0,.5-.1.52.52,0,0,0,.4-.2c.1-.1.1-.1.1-.2s.1-.2.1-.3a.52.52,0,0,0-.2-.4.76.76,0,0,0-.4-.2c-.2,0-.4-.1-.6-.1a.75.75,0,0,1-.5-.1c-.2,0-.3-.1-.5-.1a1.38,1.38,0,0,1-.4-.3c-.1-.1-.2-.3-.3-.4a1.08,1.08,0,0,1-.1-.6.75.75,0,0,1,.1-.5,1.38,1.38,0,0,1,.3-.4,2.09,2.09,0,0,1,.6-.4,3.25,3.25,0,0,1,1.6,0c.2.1.5.2.6.4a2.18,2.18,0,0,1,.4.5,1.27,1.27,0,0,1,.1.6H156a.37.37,0,0,0-.1-.3.35.35,0,0,0-.1-.2c-.1-.1-.2-.2-.3-.2s-.3-.1-.4-.1a.6.6,0,0,0-.4.1.52.52,0,0,0-.4.2c-.1.1-.1.1-.1.2v.2c0,.2,0,.3.1.4s.2.1.4.2a.9.9,0,0,1,.5.1.75.75,0,0,1,.5.1.76.76,0,0,1,.5.2,1.38,1.38,0,0,1,.4.3c.1.1.2.3.3.4A.76.76,0,0,1,157.1,49.9Z"/><path class="cls-1" d="M159.7,47.2v4.2h-.9V47.2h-1.5v-.8h3.9v.8Z"/><path class="cls-1" d="M164.4,51.4l-.3-1h-2l-.3,1h-.9l1.8-5h1l1.8,5Zm-1.3-3.9-.7,2.1h1.4Z"/><path class="cls-1" d="M168.9,51.4,166.7,48v3.4h-.9v-5h1l2.1,3.4V46.4h.9v5Z"/><path class="cls-1" d="M91.8,59.1h-1l-1.7-5h1l1.2,3.8,1.2-3.8h.9Z"/><path class="cls-1" d="M94.1,59.1v-5h3.6v.8H95.1v1.2h2.3v.8H95.1v1.4h2.6v.8Z"/><path class="cls-1" d="M100.7,54.9v4.2h-.9V54.9H98.3v-.8h3.9v.8Z"/><path class="cls-1" d="M103,59.1v-5h3.6v.8h-2.7v1.2h2.3v.8h-2.3v1.4h2.7v.8Z"/><path class="cls-1" d="M110.3,59.1l-.8-1.9h-1.1v1.9h-.9v-5h2.1a2,2,0,0,1,.8.1,1.2,1.2,0,0,1,.8.8,1.27,1.27,0,0,1,.1.6,2.92,2.92,0,0,1-.2.9,1.79,1.79,0,0,1-.7.5l.9,2h-1Zm.1-3.5a.37.37,0,0,0-.1-.3.22.22,0,0,0-.2-.2c-.1-.1-.2-.1-.3-.2s-.2-.1-.3-.1h-1.2v1.5h1.2a.85.85,0,0,0,.6-.2C110.4,56,110.4,55.9,110.4,55.6Z"/><path class="cls-1" d="M115.4,59.1l-.3-1h-2l-.3,1h-.9l1.8-5h1l1.7,5Zm-1.3-3.9-.7,2.1h1.4Z"/><path class="cls-1" d="M119.9,59.1l-2.2-3.4v3.4h-.8v-5h1l2.1,3.4V54.1h.9v5Z"/><path class="cls-1" d="M125.7,57.6a1.27,1.27,0,0,1-.1.6,1.38,1.38,0,0,1-.3.4,1.61,1.61,0,0,1-.7.4,2.77,2.77,0,0,1-.9.1,2.2,2.2,0,0,1-.8-.1,1.61,1.61,0,0,1-.7-.4,2.18,2.18,0,0,1-.4-.5,1.48,1.48,0,0,1-.1-.7h.9a.37.37,0,0,0,.1.3c0,.1.1.2.2.3a.52.52,0,0,0,.4.2c.2,0,.3.1.4.1a.9.9,0,0,0,.5-.1.52.52,0,0,0,.4-.2c.1-.1.1-.1.1-.2s.1-.2.1-.3a.52.52,0,0,0-.2-.4c-.1-.1-.3-.1-.4-.2s-.4-.1-.6-.1a.75.75,0,0,1-.5-.1c-.2,0-.3-.1-.5-.1a1.38,1.38,0,0,1-.4-.3c-.1-.1-.2-.3-.3-.4a1.08,1.08,0,0,1-.1-.6.75.75,0,0,1,.1-.5,1.38,1.38,0,0,1,.3-.4,2.09,2.09,0,0,1,.6-.4,3.25,3.25,0,0,1,1.6,0c.2.1.5.2.6.4a2.18,2.18,0,0,1,.4.5,1.27,1.27,0,0,1,.1.6h-1a.37.37,0,0,0-.1-.3.22.22,0,0,0-.2-.2c-.1-.1-.2-.2-.3-.2s-.3-.1-.4-.1a.6.6,0,0,0-.4.1.76.76,0,0,0-.4.2c-.1.1-.1.1-.1.2v.2c0,.2,0,.3.1.4s.2.1.4.2a.9.9,0,0,1,.5.1.75.75,0,0,1,.5.1.76.76,0,0,1,.5.2,1.38,1.38,0,0,1,.4.3c.1.1.3.3.3.4C125.7,57.2,125.7,57.4,125.7,57.6Z"/><path class="cls-1" d="M132.5,56.6v.6a.75.75,0,0,1-.1.5c0,.2-.1.3-.2.5s-.2.3-.3.4a1.61,1.61,0,0,1-.7.4,2,2,0,0,1-.8.1,2.2,2.2,0,0,1-.8-.1,1.61,1.61,0,0,1-.7-.4c-.1-.1-.2-.3-.3-.4s-.1-.3-.2-.5-.1-.3-.1-.5V56a.75.75,0,0,1,.1-.5c0-.2.1-.3.2-.5a1.38,1.38,0,0,1,.3-.4,1.61,1.61,0,0,1,.7-.4,2,2,0,0,1,.8-.1,2.2,2.2,0,0,1,.8.1,2.51,2.51,0,0,1,.7.4c.1.1.2.3.3.4s.1.3.2.5.1.3.1.5Zm-.9,0v-.8c0-.1-.1-.3-.1-.4s-.1-.2-.2-.3a.52.52,0,0,0-.4-.2.85.85,0,0,0-.8,0c-.1.1-.3.1-.4.2s-.1.2-.2.3-.1.2-.1.4v1.6c0,.1.1.3.1.4s.1.2.2.3a.52.52,0,0,0,.4.2.85.85,0,0,0,.8,0c.1-.1.3-.1.4-.2s.2-.2.2-.3.1-.2.1-.4v-.8Z"/><path class="cls-1" d="M134.3,54.9v1.3h2.3V57h-2.3v2h-.9V54h3.5v.8h-2.6Z"/><path class="cls-1" d="M142.4,59.1l-.3-1h-2l-.3,1h-.9l1.8-5h1l1.8,5ZM141,55.2l-.7,2.1h1.4Z"/><path class="cls-1" d="M148.1,59.1V55.5L146.8,59h-.7l-1.3-3.5v3.6h-.9v-5h1.2l1.3,3.6,1.3-3.6h1.2v5Z"/><path class="cls-1" d="M150.1,59.1v-5h3.6v.8h-2.6v1.2h2.3v.8h-2.3v1.4h2.6v.8Z"/><path class="cls-1" d="M157.5,59.1l-.8-1.9h-1.1v1.9h-.9v-5h2.1a2,2,0,0,1,.8.1,2.19,2.19,0,0,1,.5.3.85.85,0,0,1,.3.5,1.27,1.27,0,0,1,.1.6,1.61,1.61,0,0,1-.3.9,1.79,1.79,0,0,1-.7.5l.9,2h-.9Zm.1-3.5a.37.37,0,0,0-.1-.3.22.22,0,0,0-.2-.2c-.1-.1-.2-.1-.3-.2s-.2-.1-.3-.1h-1.2v1.5h1.2a.85.85,0,0,0,.6-.2A.46.46,0,0,0,157.6,55.6Z"/><path class="cls-1" d="M159.4,59.1v-5h.9v5Z"/><path class="cls-1" d="M165.2,57.5c0,.2-.1.4-.1.6a2.19,2.19,0,0,1-.3.5,1.61,1.61,0,0,1-.7.4,2.35,2.35,0,0,1-.8.2,2.2,2.2,0,0,1-.8-.1,2.51,2.51,0,0,1-.7-.4c-.1-.1-.2-.3-.3-.4s-.1-.3-.2-.5-.1-.3-.1-.5V56.1a.75.75,0,0,1,.1-.5c0-.2.1-.3.2-.5a1.38,1.38,0,0,1,.3-.4,1.61,1.61,0,0,1,.7-.4,2,2,0,0,1,.8-.1,2.2,2.2,0,0,1,.8.1,2.51,2.51,0,0,1,.7.4c.1.2.3.3.3.5a1.27,1.27,0,0,1,.1.6h-.9a.37.37,0,0,0-.1-.3.22.22,0,0,0-.2-.2c-.1-.1-.2-.2-.3-.2a.85.85,0,0,0-.8,0c-.1.1-.3.1-.4.2s-.1.2-.2.3-.1.2-.1.4v1.6c0,.1.1.3.1.4s.1.2.2.3a.52.52,0,0,0,.4.2.6.6,0,0,0,.4.1c.2,0,.3,0,.4-.1s.2-.1.3-.2a1.07,1.07,0,0,0,.2-.6h1Z"/><path class="cls-1" d="M169.1,59.1l-.3-1h-2l-.3,1h-.9l1.8-5h1l1.8,5Zm-1.3-3.9-.7,2.1h1.4Z"/></svg>