<?xml version="1.0" encoding="utf-8"?>
<!-- Generator: Adobe Illustrator 21.0.0, SVG Export Plug-In . SVG Version: 6.00 Build 0)  -->
<svg version="1.1" id="Layer_1" xmlns="http://www.w3.org/2000/svg" xmlns:xlink="http://www.w3.org/1999/xlink" x="0px" y="0px"
	 viewBox="0 0 200 200" style="enable-background:new 0 0 200 200;" xml:space="preserve">
<style type="text/css">
	.st0{fill:none;}
	.st1{fill:#00352A;}
</style>
<g>
	<rect x="7" y="65.2" class="st0" width="186" height="75.3"/>
	<g>
		<path class="st1" d="M50.8,73.3L33,111.6H15.1L33,73.3H50.8z M77.7,73.3L77.7,73.3H59.8l-17.9,38.3h17.9L77.7,73.3z M82.1,82.9
			L73.2,102l4.5,9.6h17.9L82.1,82.9z M167,73.3L167,73.3h-17.9h0l-17.9,38.3h17.9L167,73.3z M171.5,82.9l-8.9,19.2l4.5,9.6h17.9
			L171.5,82.9z M122.3,73.3l-4.5,9.6l8.9,19.2l13.4-28.7H122.3z M104.5,73.3H86.6l17.9,38.3l0,0h17.9h0L104.5,73.3z"/>
		<g>
			<path class="st1" d="M104.7,124.7v-5h0.9v5H104.7z"/>
			<path class="st1" d="M109.6,124.7l-0.8-1.9h-1.1v1.9h-0.9v-5h2.1c0.3,0,0.6,0,0.8,0.1c0.2,0.1,0.4,0.2,0.5,0.3
				c0.1,0.1,0.2,0.3,0.3,0.5c0.1,0.2,0.1,0.4,0.1,0.6c0,0.3-0.1,0.6-0.2,0.9c-0.2,0.2-0.4,0.4-0.7,0.5l0.9,2H109.6z M109.7,121.2
				c0-0.1,0-0.2-0.1-0.3c0-0.1-0.1-0.2-0.2-0.2c-0.1-0.1-0.2-0.1-0.3-0.2c-0.1,0-0.2-0.1-0.3-0.1h-1.2v1.5h1.2
				c0.3,0,0.5-0.1,0.6-0.2C109.6,121.7,109.7,121.5,109.7,121.2z"/>
			<path class="st1" d="M114.4,124.7l-0.3-1h-2l-0.3,1h-0.9l1.8-5h1l1.8,5H114.4z M113.1,120.8l-0.7,2.1h1.4L113.1,120.8z"/>
			<path class="st1" d="M119.7,122.2c0,0.2,0,0.4,0,0.6c0,0.2,0,0.4-0.1,0.5c0,0.2-0.1,0.3-0.2,0.5c-0.1,0.1-0.2,0.3-0.3,0.4
				l0.4,0.5l-0.5,0.4l-0.6-0.6c-0.3,0.1-0.6,0.2-0.9,0.2c-0.3,0-0.5,0-0.8-0.1c-0.3-0.1-0.5-0.2-0.7-0.4c-0.1-0.1-0.2-0.3-0.3-0.4
				c-0.1-0.2-0.1-0.3-0.2-0.5c0-0.2-0.1-0.3-0.1-0.5c0-0.2,0-0.4,0-0.6c0-0.2,0-0.4,0-0.6c0-0.2,0-0.4,0.1-0.5
				c0-0.2,0.1-0.3,0.2-0.5c0.1-0.1,0.2-0.3,0.3-0.4c0.2-0.2,0.4-0.3,0.7-0.4c0.2-0.1,0.5-0.1,0.8-0.1c0.3,0,0.5,0,0.8,0.1
				c0.2,0.1,0.5,0.2,0.7,0.4c0.1,0.1,0.2,0.3,0.3,0.4c0.1,0.2,0.1,0.3,0.2,0.5c0,0.2,0.1,0.3,0.1,0.5
				C119.7,121.8,119.7,122,119.7,122.2z M118.8,122.2c0-0.1,0-0.2,0-0.4c0-0.1,0-0.3,0-0.4c0-0.1-0.1-0.3-0.1-0.4
				c0-0.1-0.1-0.2-0.2-0.3c-0.1-0.1-0.2-0.2-0.4-0.2c-0.1-0.1-0.3-0.1-0.4-0.1c-0.2,0-0.3,0-0.4,0.1c-0.1,0.1-0.3,0.1-0.4,0.2
				c-0.1,0.1-0.1,0.2-0.2,0.3c0,0.1-0.1,0.2-0.1,0.4c0,0.1,0,0.3,0,0.4c0,0.1,0,0.3,0,0.4s0,0.2,0,0.4c0,0.1,0,0.3,0,0.4
				c0,0.1,0.1,0.3,0.1,0.4c0.1,0.1,0.1,0.2,0.2,0.3c0.1,0.1,0.2,0.2,0.4,0.2c0.1,0.1,0.3,0.1,0.4,0.1c0.1,0,0.2,0,0.3-0.1l-0.5-0.7
				l0.5-0.4l0.5,0.7c0.1-0.1,0.1-0.2,0.1-0.3c0-0.1,0.1-0.2,0.1-0.3c0-0.1,0-0.2,0-0.3C118.8,122.4,118.8,122.3,118.8,122.2z"/>
			<path class="st1" d="M125.4,124.7l-0.3-1h-2l-0.3,1h-0.9l1.8-5h1l1.8,5H125.4z M124.1,120.8l-0.7,2.1h1.4L124.1,120.8z"/>
			<path class="st1" d="M130,124.7l-2.2-3.4v3.4H127v-5h1l2.1,3.4v-3.4h0.9v5H130z"/>
			<path class="st1" d="M136,122.2c0,0.2,0,0.3,0,0.5c0,0.2,0,0.3-0.1,0.5c0,0.2-0.1,0.3-0.2,0.5c-0.1,0.2-0.2,0.3-0.3,0.4
				c-0.2,0.2-0.4,0.3-0.6,0.4c-0.2,0.1-0.5,0.1-0.8,0.1H132v-5h1.9c0.3,0,0.6,0,0.8,0.1c0.2,0.1,0.4,0.2,0.6,0.4
				c0.1,0.1,0.2,0.3,0.3,0.4c0.1,0.2,0.1,0.3,0.2,0.5c0,0.2,0.1,0.3,0.1,0.5C136,121.8,136,122,136,122.2z M135.1,122.2
				c0-0.1,0-0.2,0-0.4c0-0.1,0-0.3,0-0.4c0-0.1-0.1-0.2-0.1-0.4c0-0.1-0.1-0.2-0.2-0.3c-0.1-0.1-0.2-0.2-0.3-0.2
				c-0.1,0-0.3-0.1-0.4-0.1h-1v3.4h1c0.1,0,0.3,0,0.4-0.1c0.1-0.1,0.2-0.1,0.3-0.2c0.1-0.1,0.2-0.2,0.2-0.3c0-0.1,0.1-0.2,0.1-0.4
				c0-0.1,0-0.3,0-0.4C135.1,122.4,135.1,122.3,135.1,122.2z"/>
			<path class="st1" d="M141.5,124.7l-0.3-1h-2l-0.3,1H138l1.7-5h1l1.8,5H141.5z M140.2,120.8l-0.7,2.1h1.4L140.2,120.8z"/>
			<path class="st1" d="M144,120.5v1.3h2.3v0.8H144v2H143v-5h3.5v0.8H144z"/>
			<path class="st1" d="M150.4,124.7l-0.1-0.6c0,0.1-0.1,0.1-0.2,0.2c-0.1,0.1-0.2,0.1-0.3,0.2c-0.1,0.1-0.2,0.1-0.4,0.2
				c-0.1,0-0.3,0.1-0.4,0.1c-0.3,0-0.6,0-0.8-0.1c-0.3-0.1-0.5-0.2-0.7-0.4c-0.1-0.1-0.2-0.3-0.3-0.4c-0.1-0.2-0.1-0.3-0.2-0.5
				c0-0.2-0.1-0.3-0.1-0.5c0-0.2,0-0.4,0-0.6c0-0.2,0-0.4,0-0.6c0-0.2,0.1-0.4,0.1-0.5c0-0.2,0.1-0.3,0.2-0.5
				c0.1-0.2,0.2-0.3,0.3-0.4c0.2-0.2,0.4-0.3,0.7-0.4c0.3-0.1,0.5-0.1,0.8-0.1c0.3,0,0.6,0.1,0.8,0.2c0.3,0.1,0.5,0.2,0.6,0.4
				c0.1,0.1,0.2,0.3,0.3,0.4c0.1,0.2,0.1,0.4,0.1,0.6H150c0-0.1,0-0.2-0.1-0.3c0-0.1-0.1-0.1-0.1-0.2c-0.2-0.2-0.4-0.3-0.8-0.3
				c-0.1,0-0.3,0-0.4,0.1c-0.2,0.1-0.3,0.1-0.4,0.3c-0.1,0.1-0.2,0.2-0.2,0.3c-0.1,0.1-0.1,0.2-0.1,0.4c0,0.1,0,0.3-0.1,0.4
				c0,0.1,0,0.3,0,0.4s0,0.2,0,0.4c0,0.1,0,0.3,0.1,0.4c0,0.1,0.1,0.3,0.1,0.4c0.1,0.1,0.1,0.2,0.2,0.3c0.1,0.1,0.2,0.2,0.4,0.2
				c0.1,0.1,0.3,0.1,0.4,0.1c0.2,0,0.3,0,0.4-0.1c0.1-0.1,0.2-0.1,0.3-0.2c0.1-0.1,0.2-0.3,0.3-0.4c0-0.2,0.1-0.3,0.1-0.5h-1.2V122
				h2.1v2.7H150.4z"/>
			<path class="st1" d="M154.8,124.7v-2.2h-2.1v2.2h-0.9v-5h0.9v2h2.1v-2h0.9v5H154.8z"/>
			<path class="st1" d="M159.9,124.7l-0.3-1h-2l-0.3,1h-0.9l1.8-5h1l1.8,5H159.9z M158.5,120.8l-0.7,2.1h1.4L158.5,120.8z"/>
			<path class="st1" d="M164.5,124.7l-2.2-3.4v3.4h-0.9v-5h1l2.1,3.4v-3.4h0.9v5H164.5z"/>
			<path class="st1" d="M166.5,124.7v-5h0.9v5H166.5z"/>
			<path class="st1" d="M172.2,123.2c0,0.2,0,0.4-0.1,0.6c-0.1,0.2-0.2,0.3-0.3,0.4c-0.2,0.2-0.4,0.3-0.7,0.4
				c-0.3,0.1-0.6,0.1-0.9,0.1c-0.3,0-0.5,0-0.8-0.1c-0.3-0.1-0.5-0.2-0.7-0.4c-0.2-0.1-0.3-0.3-0.4-0.5c-0.1-0.2-0.1-0.4-0.1-0.7
				h0.9c0,0.1,0,0.2,0.1,0.3c0,0.1,0.1,0.2,0.2,0.3c0.1,0.1,0.2,0.2,0.4,0.2c0.2,0,0.3,0.1,0.4,0.1c0.2,0,0.3,0,0.5-0.1
				c0.2,0,0.3-0.1,0.4-0.2c0.1-0.1,0.1-0.1,0.1-0.2c0-0.1,0.1-0.2,0.1-0.3c0-0.2-0.1-0.3-0.2-0.4c-0.1-0.1-0.3-0.2-0.4-0.2
				c-0.2,0-0.4-0.1-0.6-0.1c-0.2,0-0.4,0-0.5-0.1c-0.2,0-0.3-0.1-0.5-0.1c-0.2-0.1-0.3-0.2-0.4-0.3c-0.1-0.1-0.2-0.3-0.3-0.4
				c-0.1-0.2-0.1-0.3-0.1-0.6c0-0.2,0-0.4,0.1-0.5c0.1-0.2,0.2-0.3,0.3-0.4c0.2-0.2,0.4-0.3,0.6-0.4c0.3-0.1,0.5-0.1,0.8-0.1
				c0.3,0,0.5,0,0.8,0.1c0.2,0.1,0.5,0.2,0.6,0.4c0.1,0.1,0.3,0.3,0.4,0.5c0.1,0.2,0.1,0.4,0.1,0.6h-0.9c0-0.1,0-0.2-0.1-0.3
				c0-0.1-0.1-0.2-0.1-0.2c-0.1-0.1-0.2-0.2-0.3-0.2c-0.1,0-0.3-0.1-0.4-0.1c-0.1,0-0.3,0-0.4,0.1c-0.2,0-0.3,0.1-0.4,0.2
				c-0.1,0.1-0.1,0.1-0.1,0.2c0,0.1,0,0.1,0,0.2c0,0.2,0,0.3,0.1,0.4c0.1,0.1,0.2,0.1,0.4,0.2c0.2,0,0.3,0,0.5,0.1
				c0.2,0,0.4,0,0.5,0.1c0.2,0,0.4,0.1,0.5,0.2c0.2,0.1,0.3,0.2,0.4,0.3c0.1,0.1,0.2,0.3,0.3,0.4C172.1,122.8,172.2,123,172.2,123.2
				z"/>
			<path class="st1" d="M174.8,120.5v4.2h-0.9v-4.2h-1.5v-0.8h3.9v0.8H174.8z"/>
			<path class="st1" d="M179.5,124.7l-0.3-1h-2l-0.3,1h-0.9l1.8-5h1l1.8,5H179.5z M178.2,120.8l-0.7,2.1h1.4L178.2,120.8z"/>
			<path class="st1" d="M184,124.7l-2.2-3.4v3.4h-0.9v-5h1l2.1,3.4v-3.4h0.9v5H184z"/>
			<path class="st1" d="M106.9,132.4h-1l-1.7-5h1l1.2,3.8l1.2-3.8h0.9L106.9,132.4z"/>
			<path class="st1" d="M109.2,132.4v-5h3.6v0.8h-2.6v1.2h2.3v0.8h-2.3v1.4h2.6v0.8H109.2z"/>
			<path class="st1" d="M115.8,128.2v4.2h-0.9v-4.2h-1.5v-0.8h3.9v0.8H115.8z"/>
			<path class="st1" d="M118.1,132.4v-5h3.6v0.8H119v1.2h2.3v0.8H119v1.4h2.7v0.8H118.1z"/>
			<path class="st1" d="M125.4,132.4l-0.8-1.9h-1.1v1.9h-0.9v-5h2.1c0.3,0,0.6,0,0.8,0.1c0.2,0.1,0.4,0.2,0.5,0.3
				c0.1,0.1,0.2,0.3,0.3,0.5c0.1,0.2,0.1,0.4,0.1,0.6c0,0.3-0.1,0.6-0.2,0.9c-0.2,0.2-0.4,0.4-0.7,0.5l0.9,2H125.4z M125.5,128.9
				c0-0.1,0-0.2-0.1-0.3c0-0.1-0.1-0.2-0.2-0.2c-0.1-0.1-0.2-0.1-0.3-0.2c-0.1,0-0.2-0.1-0.3-0.1h-1.2v1.5h1.2
				c0.3,0,0.5-0.1,0.6-0.2C125.5,129.3,125.5,129.2,125.5,128.9z"/>
			<path class="st1" d="M130.5,132.4l-0.3-1h-2l-0.3,1h-0.9l1.8-5h1l1.7,5H130.5z M129.2,128.5l-0.7,2.1h1.4L129.2,128.5z"/>
			<path class="st1" d="M135,132.4l-2.2-3.4v3.4H132v-5h1l2.1,3.4v-3.4h0.9v5H135z"/>
			<path class="st1" d="M140.8,130.9c0,0.2,0,0.4-0.1,0.6c-0.1,0.2-0.2,0.3-0.3,0.4c-0.2,0.2-0.4,0.3-0.7,0.4
				c-0.3,0.1-0.6,0.1-0.9,0.1c-0.3,0-0.5,0-0.8-0.1c-0.3-0.1-0.5-0.2-0.7-0.4c-0.1-0.1-0.3-0.3-0.4-0.5c-0.1-0.2-0.1-0.4-0.1-0.7
				h0.9c0,0.1,0,0.2,0.1,0.3c0,0.1,0.1,0.2,0.2,0.3c0.1,0.1,0.2,0.2,0.4,0.2c0.2,0,0.3,0.1,0.4,0.1c0.2,0,0.3,0,0.5-0.1
				c0.2,0,0.3-0.1,0.4-0.2c0.1-0.1,0.1-0.1,0.1-0.2c0-0.1,0.1-0.2,0.1-0.3c0-0.2-0.1-0.3-0.2-0.4c-0.1-0.1-0.3-0.1-0.4-0.2
				c-0.2,0-0.4-0.1-0.6-0.1c-0.2,0-0.4,0-0.5-0.1c-0.2,0-0.3-0.1-0.5-0.1c-0.2-0.1-0.3-0.2-0.4-0.3c-0.1-0.1-0.2-0.3-0.3-0.4
				c-0.1-0.2-0.1-0.3-0.1-0.6c0-0.2,0-0.4,0.1-0.5c0.1-0.2,0.2-0.3,0.3-0.4c0.2-0.2,0.4-0.3,0.6-0.4c0.3-0.1,0.5-0.1,0.8-0.1
				c0.3,0,0.5,0,0.8,0.1c0.2,0.1,0.5,0.2,0.6,0.4c0.1,0.1,0.3,0.3,0.4,0.5c0.1,0.2,0.1,0.4,0.1,0.6h-1c0-0.1,0-0.2-0.1-0.3
				c0-0.1-0.1-0.2-0.2-0.2c-0.1-0.1-0.2-0.2-0.3-0.2c-0.1,0-0.3-0.1-0.4-0.1c-0.1,0-0.3,0-0.4,0.1c-0.1,0-0.3,0.1-0.4,0.2
				c-0.1,0.1-0.1,0.1-0.1,0.2c0,0.1,0,0.1,0,0.2c0,0.2,0,0.3,0.1,0.4c0.1,0.1,0.2,0.1,0.4,0.2c0.2,0,0.3,0,0.5,0.1
				c0.2,0,0.4,0,0.5,0.1c0.2,0,0.4,0.1,0.5,0.2c0.2,0.1,0.3,0.2,0.4,0.3c0.1,0.1,0.3,0.3,0.3,0.4
				C140.8,130.5,140.8,130.7,140.8,130.9z"/>
			<path class="st1" d="M147.6,129.9c0,0.2,0,0.4,0,0.6c0,0.2,0,0.4-0.1,0.5c0,0.2-0.1,0.3-0.2,0.5c-0.1,0.1-0.2,0.3-0.3,0.4
				c-0.2,0.2-0.4,0.3-0.7,0.4c-0.2,0.1-0.5,0.1-0.8,0.1c-0.3,0-0.5,0-0.8-0.1c-0.3-0.1-0.5-0.2-0.7-0.4c-0.1-0.1-0.2-0.3-0.3-0.4
				c-0.1-0.2-0.1-0.3-0.2-0.5c0-0.2-0.1-0.3-0.1-0.5c0-0.2,0-0.4,0-0.6c0-0.2,0-0.4,0-0.6c0-0.2,0-0.4,0.1-0.5
				c0-0.2,0.1-0.3,0.2-0.5c0.1-0.2,0.2-0.3,0.3-0.4c0.2-0.2,0.4-0.3,0.7-0.4c0.2-0.1,0.5-0.1,0.8-0.1c0.3,0,0.5,0,0.8,0.1
				c0.2,0.1,0.5,0.2,0.7,0.4c0.1,0.1,0.2,0.3,0.3,0.4c0.1,0.2,0.1,0.3,0.2,0.5c0,0.2,0.1,0.3,0.1,0.5
				C147.6,129.5,147.6,129.7,147.6,129.9z M146.7,129.9c0-0.1,0-0.2,0-0.4c0-0.1,0-0.3,0-0.4c0-0.1-0.1-0.3-0.1-0.4
				c0-0.1-0.1-0.2-0.2-0.3c-0.1-0.1-0.2-0.2-0.4-0.2c-0.1-0.1-0.3-0.1-0.4-0.1c-0.1,0-0.3,0-0.4,0.1c-0.1,0.1-0.3,0.1-0.4,0.2
				c-0.1,0.1-0.1,0.2-0.2,0.3c-0.1,0.1-0.1,0.2-0.1,0.4c0,0.1,0,0.3,0,0.4c0,0.1,0,0.3,0,0.4c0,0.1,0,0.2,0,0.4c0,0.1,0,0.3,0,0.4
				c0,0.1,0.1,0.3,0.1,0.4c0,0.1,0.1,0.2,0.2,0.3c0.1,0.1,0.2,0.2,0.4,0.2c0.1,0.1,0.3,0.1,0.4,0.1c0.1,0,0.3,0,0.4-0.1
				c0.1-0.1,0.3-0.1,0.4-0.2c0.1-0.1,0.2-0.2,0.2-0.3c0-0.1,0.1-0.2,0.1-0.4c0-0.1,0-0.3,0-0.4C146.7,130.1,146.7,130,146.7,129.9z"
				/>
			<path class="st1" d="M149.4,128.2v1.3h2.3v0.8h-2.3v2h-0.9v-5h3.5v0.8H149.4z"/>
			<path class="st1" d="M157.5,132.4l-0.3-1h-2l-0.3,1h-0.9l1.8-5h1l1.8,5H157.5z M156.1,128.5l-0.7,2.1h1.4L156.1,128.5z"/>
			<path class="st1" d="M163.2,132.4v-3.6l-1.3,3.5h-0.7l-1.3-3.5v3.6h-0.9v-5h1.2l1.3,3.6l1.3-3.6h1.2v5H163.2z"/>
			<path class="st1" d="M165.2,132.4v-5h3.6v0.8h-2.6v1.2h2.3v0.8h-2.3v1.4h2.6v0.8H165.2z"/>
			<path class="st1" d="M172.6,132.4l-0.8-1.9h-1.1v1.9h-0.9v-5h2.1c0.3,0,0.6,0,0.8,0.1c0.2,0.1,0.4,0.2,0.5,0.3
				c0.1,0.1,0.3,0.3,0.3,0.5c0.1,0.2,0.1,0.4,0.1,0.6c0,0.3-0.1,0.6-0.3,0.9c-0.2,0.2-0.4,0.4-0.7,0.5l0.9,2H172.6z M172.7,128.9
				c0-0.1,0-0.2-0.1-0.3c0-0.1-0.1-0.2-0.2-0.2c-0.1-0.1-0.2-0.1-0.3-0.2c-0.1,0-0.2-0.1-0.3-0.1h-1.2v1.5h1.2
				c0.3,0,0.5-0.1,0.6-0.2C172.6,129.3,172.7,129.2,172.7,128.9z"/>
			<path class="st1" d="M174.5,132.4v-5h0.9v5H174.5z"/>
			<path class="st1" d="M180.3,130.8c0,0.2-0.1,0.4-0.1,0.6c-0.1,0.2-0.2,0.4-0.3,0.5c-0.2,0.2-0.4,0.3-0.7,0.4
				c-0.3,0.1-0.5,0.2-0.8,0.2c-0.3,0-0.5,0-0.8-0.1c-0.2-0.1-0.5-0.2-0.7-0.4c-0.1-0.1-0.2-0.3-0.3-0.4c-0.1-0.2-0.1-0.3-0.2-0.5
				c0-0.2-0.1-0.3-0.1-0.5c0-0.2,0-0.4,0-0.6c0-0.2,0-0.4,0-0.6c0-0.2,0-0.4,0.1-0.5c0-0.2,0.1-0.3,0.2-0.5c0.1-0.2,0.2-0.3,0.3-0.4
				c0.2-0.2,0.4-0.3,0.7-0.4c0.2-0.1,0.5-0.1,0.8-0.1c0.3,0,0.5,0,0.8,0.1c0.2,0.1,0.5,0.2,0.7,0.4c0.1,0.2,0.3,0.3,0.3,0.5
				c0.1,0.2,0.1,0.4,0.1,0.6h-0.9c0-0.1,0-0.2-0.1-0.3c0-0.1-0.1-0.2-0.2-0.2c-0.1-0.1-0.2-0.2-0.3-0.2c-0.1-0.1-0.3-0.1-0.4-0.1
				c-0.1,0-0.3,0-0.4,0.1c-0.1,0.1-0.3,0.1-0.4,0.2c-0.1,0.1-0.1,0.2-0.2,0.3c0,0.1-0.1,0.2-0.1,0.4c0,0.1,0,0.3,0,0.4
				c0,0.1,0,0.3,0,0.4c0,0.1,0,0.2,0,0.4c0,0.1,0,0.3,0,0.4c0,0.1,0.1,0.3,0.1,0.4c0,0.1,0.1,0.2,0.2,0.3c0.1,0.1,0.2,0.2,0.4,0.2
				c0.1,0.1,0.3,0.1,0.4,0.1c0.2,0,0.3,0,0.4-0.1c0.1-0.1,0.2-0.1,0.3-0.2c0.1-0.2,0.2-0.3,0.2-0.6H180.3z"/>
			<path class="st1" d="M184.2,132.4l-0.3-1h-2l-0.3,1h-0.9l1.8-5h1l1.8,5H184.2z M182.9,128.5l-0.7,2.1h1.4L182.9,128.5z"/>
		</g>
	</g>
</g>
</svg>
