<svg id="Layer_1" data-name="Layer 1" xmlns="http://www.w3.org/2000/svg" viewBox="0 0 169.9 38.4"><defs><style>.cls-1{fill:#00352a;}</style></defs><title>iava_logo_paths</title><polygon class="cls-1" points="35.7 0 17.9 38.3 0 38.3 17.9 0 35.7 0"/><polygon class="cls-1" points="62.6 0 44.7 0 26.8 38.3 44.7 38.3 62.6 0"/><polygon class="cls-1" points="67 9.6 58.1 28.7 62.6 38.3 80.5 38.3 67 9.6"/><polygon class="cls-1" points="151.9 0 134 0 116.1 38.3 134 38.3 151.9 0"/><polygon class="cls-1" points="156.4 9.6 147.5 28.8 152 38.4 169.9 38.4 156.4 9.6"/><polygon class="cls-1" points="107.2 0 102.7 9.6 111.6 28.8 125 0.1 107.2 0.1 107.2 0"/><polygon class="cls-1" points="89.4 0 71.5 0 89.4 38.3 107.3 38.3 89.4 0"/></svg>